<?xml version="1.0" encoding="utf-8"?>
<!-- Generator: Adobe Illustrator 26.0.1, SVG Export Plug-In . SVG Version: 6.00 Build 0)  -->
<svg version="1.1" id="Layer_1" xmlns="http://www.w3.org/2000/svg" xmlns:xlink="http://www.w3.org/1999/xlink" x="0px" y="0px"
	 viewBox="0 0 439 560" style="enable-background:new 0 0 439 560;" xml:space="preserve">
<style type="text/css">
	.st0{opacity:0.9;}
	.st1{fill:#A06436;}
	.st2{opacity:0.6;fill-rule:evenodd;clip-rule:evenodd;fill:#A06436;}
	.st3{opacity:0.9;fill-rule:evenodd;clip-rule:evenodd;fill:#A06436;}
	.st4{fill-rule:evenodd;clip-rule:evenodd;fill:#A06436;}
</style>
<g>
	<g>
		<g class="st0">
			<polygon class="st1" points="85.8,194.1 96.4,194.1 96.4,117 111.5,117 111.5,209.2 70.7,209.2 70.7,91.3 250.5,91.3 250.5,80.8 
				70.7,80.8 70.7,65.6 265.6,65.6 265.6,106.4 85.8,106.4 			"/>
			<rect x="276.2" y="91.3" class="st1" width="15.1" height="15.1"/>
			<path class="st1" d="M301.8,65.6v40.8h15.1V80.8h10.6v61.9h-10.6V117h-66.5v25.7h-10.6V117h-15.1v25.7h-10.6V117h-40.8v25.7
				h-10.6V117H122v40.8h25.7v10.6H122v40.8h143.5v-40.8h-92.1v15.1h77v10.6H137.2v-10.6h25.7v-25.7h179.8V65.6H301.8z M147.7,142.7
				h-10.6v-10.6h10.6V142.7z M199.1,142.7h-10.6v-10.6h10.6V142.7z M301.8,142.7h-36.3v-10.6h36.3V142.7z"/>
			<polygon class="st1" points="368.3,65.6 368.3,209.2 276.2,209.2 276.2,168.4 342.6,168.4 342.6,183.5 291.3,183.5 291.3,194.1 
				353.2,194.1 353.2,65.6 			"/>
		</g>
		<rect x="70.7" y="225" class="st2" width="299.3" height="15.9"/>
		<rect x="84.1" y="273" class="st3" width="270.7" height="27.1"/>
		<path class="st1" d="M55.5,249.7c-29.7,0-53.9,24.2-53.9,53.9c0,29.7,24.2,53.9,53.9,53.9c22.3,0,42.6-14,50.5-35l-15.3-5.8
			c-5.5,14.6-19.6,24.3-35.1,24.3c-20.7,0-37.5-16.8-37.5-37.5c0-20.7,16.8-37.5,37.5-37.5h327.9c20.7,0,37.5,16.8,37.5,37.5
			c0,20.7-16.8,37.5-37.5,37.5c-15.6,0-29.7-9.8-35.1-24.3l-15.3,5.8c7.9,20.9,28.1,35,50.5,35c29.7,0,53.9-24.2,53.9-53.9
			c0-29.7-24.2-53.9-53.9-53.9H55.5z"/>
		<g>
			<path class="st1" d="M199.6,554.5c5.3-1.2,10.6,4.4,16,3.4c3.4-0.6,6.7-1.2,10.1-1.7c4.7-0.7,9.2-1.4,13.6-2.1V311.8l-39.7,0.9
				V554.5z"/>
			<path class="st1" d="M267.4,311.1c0,1.4,0,57.9,0,101.5c0,16.8,0,31.7,0,40.8v90.9l41.9-13v-84.8c0-9.2,0-25.9,0-44.6
				c0-40.2,0-89.2,0-90.9H267.4z"/>
			<path class="st1" d="M129.7,434.2V488v43.1l41.9,13v-72.1c0-10.2,0-25.5,0-42.7c0-49.6,0-114.7,0-118.3h-41.9V434.2z"/>
		</g>
		<rect x="71.1" y="35.9" class="st2" width="296.7" height="16"/>
		<rect x="56.7" y="2" class="st4" width="325.6" height="25.7"/>
	</g>
</g>
</svg>
