<?xml version="1.0" encoding="utf-8"?>
<!-- Generator: Adobe Illustrator 26.0.1, SVG Export Plug-In . SVG Version: 6.00 Build 0)  -->
<svg version="1.1" id="Layer_1" xmlns="http://www.w3.org/2000/svg" xmlns:xlink="http://www.w3.org/1999/xlink" x="0px" y="0px"
	 viewBox="0 0 821 152" style="enable-background:new 0 0 821 152;" xml:space="preserve">
<style type="text/css">
	.st0{opacity:0.9;}
	.st1{fill:#A06436;}
	.st2{opacity:0.6;fill-rule:evenodd;clip-rule:evenodd;fill:#A06436;enable-background:new    ;}
	.st3{opacity:0.9;fill-rule:evenodd;clip-rule:evenodd;fill:#A06436;enable-background:new    ;}
	.st4{fill-rule:evenodd;clip-rule:evenodd;fill:#A06436;}
	.st5{fill:#05284D;}
</style>
<g>
	<g>
		<g>
			<g class="st0">
				<polygon class="st1" points="718.2,60.8 720.8,60.8 720.8,42.1 724.4,42.1 724.4,64.4 714.5,64.4 714.5,35.9 757.9,35.9 
					757.9,33.4 714.5,33.4 714.5,29.7 761.6,29.7 761.6,39.6 718.2,39.6 				"/>
				<rect x="764.2" y="35.9" class="st1" width="3.6" height="3.6"/>
				<path class="st1" d="M770.4,29.7v9.9h3.6v-6.2h2.5v14.9H774v-6.2h-16v6.2h-2.5v-6.2h-3.6v6.2h-2.5v-6.2h-9.9v6.2h-2.5v-6.2H727
					v9.9h6.2v2.5H727v9.9h34.6v-9.9h-22.2v3.6h18.6v2.5h-27.4v-2.5h6.2v-6.2h43.4V29.8h-9.8V29.7z M733.2,48.4h-2.5v-2.5h2.5V48.4z
					 M745.5,48.4H743v-2.5h2.5V48.4z M770.4,48.4h-8.8v-2.5h8.8V48.4z"/>
				<polygon class="st1" points="786.4,29.7 786.4,64.4 764.2,64.4 764.2,54.5 780.3,54.5 780.3,58.2 767.8,58.2 767.8,60.8 
					782.8,60.8 782.8,29.7 				"/>
			</g>
			<rect x="714.5" y="68.2" class="st2" width="72.3" height="3.8"/>
			<rect x="717.8" y="79.9" class="st3" width="65.4" height="6.6"/>
			<path class="st1" d="M710.9,74.2c-7.2,0-13,5.9-13,13c0,7.2,5.9,13,13,13c5.3,0,10.3-3.4,12.2-8.5l-3.7-1.4
				c-1.3,3.5-4.7,5.9-8.5,5.9c-5,0-9.1-4-9.1-9.1s4-9.1,9.1-9.1h79.2c5,0,9.1,4,9.1,9.1s-4,9.1-9.1,9.1c-3.7,0-7.2-2.3-8.5-5.9
				l-3.7,1.4c1.9,5,6.8,8.5,12.2,8.5c7.2,0,13-5.9,13-13c0-7.2-5.9-13-13-13H710.9z"/>
			<g>
				<path class="st1" d="M745.7,147.8c1.3-0.3,2.5,1,3.8,0.8c0.8-0.1,1.6-0.3,2.4-0.4c1.1-0.2,2.2-0.3,3.3-0.5V89.1l-9.6,0.2V147.8z
					"/>
				<path class="st1" d="M762.1,89c0,0.3,0,14,0,24.5c0,4,0,7.7,0,9.9v22l10.1-3.1v-20.5c0-2.2,0-6.3,0-10.8c0-9.7,0-21.5,0-21.9
					h-10.1V89z"/>
				<path class="st1" d="M728.8,118.7v13v10.4l10.1,3.1v-17.4c0-2.4,0-6.2,0-10.3c0-12,0-27.7,0-28.6h-10.1V118.7z"/>
			</g>
			<rect x="714.6" y="22.5" class="st2" width="71.7" height="3.8"/>
			<rect x="711.2" y="14.3" class="st4" width="78.6" height="6.3"/>
		</g>
	</g>
	<g>
		<path class="st5" d="M29,17.6v15.7c0,5-3.4,8.6-8.1,9.2L19.4,41c1.9,0,5.7-1.1,5.7-7.7V19.6L29,17.6z"/>
		<path class="st5" d="M54.4,33.4v1.1c0,0.1-0.1,0.3-0.3,0.3h-1.9c-0.5,4.3-3.7,7.3-7.9,7.8L42.8,41c1.9,0,5.7-1.1,5.7-7.7v-0.1
			l-1.4,1.4h-4.3c-5.3,0-9.6-3.7-9.6-9.2c0-5.5,4.3-9.2,9.6-9.2s9.4,3.7,9.4,9.2v7.4H54C54.4,33,54.4,33.1,54.4,33.4z M48.5,33v-7.4
			c0-6.4-3.8-7.4-5.7-7.4s-5.7,1.1-5.7,7.4c0,6.4,3.8,7.4,5.7,7.4H48.5z"/>
		<path class="st5" d="M81,33.4v1.1c0,0.1-0.1,0.3-0.3,0.3h-3c-1,0-2-0.6-2.3-1.5l-1.4,1.5h-4.4c-3,0-5.8-1.1-7.4-3.3
			c-0.5,2-1.9,3.3-5,3.3h-2.9c-0.3,0-0.3-0.1-0.3-0.3v-1.1c0-0.1,0.1-0.3,0.3-0.3h2.9c2.9,0,3-1.3,2.9-4v-3.1v-0.3
			c0-5.5,4.3-9.2,9.6-9.2c5.3,0,9.4,3.7,9.4,9.2v7.4h1.8C81,33,81,33.1,81,33.4z M75.3,33c-0.1-0.3-0.1-0.6-0.1-0.9v-6.5
			c0-6.4-3.8-7.4-5.7-7.4s-5.7,1.1-5.7,7.4c0,6.4,3.8,7.4,5.7,7.4H75.3z"/>
		<path class="st5" d="M119.3,33.4v1.1c0,0.1-0.1,0.3-0.3,0.3h-3c-1,0-1.9-0.6-2.3-1.5l-1.4,1.5H81c-0.3,0-0.3-0.1-0.3-0.3v-1.1
			c0-0.1,0.1-0.3,0.3-0.3h5.3V19.8l3.9-2v4.5l1.4-1.4c14.4-2.3,15-2.4,17-2.4c5.4,0,8.9,2.5,8.9,8.9v5.8h1.8
			C119.2,33,119.3,33.1,119.3,33.4z M113.5,33c-0.1-0.3-0.1-0.6-0.1-0.9v-5.2c0-4-1-6.7-4.9-6.8c-1.5,0-1.9,0-18.4,2.5V33H113.5z
			 M99.5,15.7l-2.4-2.4l2.4-2.5l2.5,2.5L99.5,15.7z"/>
		<path class="st5" d="M128.7,10.4v24.2h-1.4c-1,0-1.9-0.6-2.3-1.5l-1.4,1.5H119c-0.3,0-0.3-0.1-0.3-0.3v-1.1c0-0.1,0.1-0.3,0.3-0.3
			h6c-0.1-0.3-0.1-0.6-0.1-0.9V12.6L128.7,10.4z"/>
		<path class="st5" d="M134.5,12.6l3.9-2v24.2h-3.9V12.6z"/>
		<path class="st5" d="M171.7,33.4v1.1c0,0.1-0.1,0.3-0.3,0.3h-3c-1.1,0-2-0.6-2.4-1.5l-1.4,1.5h-13.2V33H166
			c-0.1-0.3-0.1-0.6-0.1-0.9v-5.4c0-5.9-3.8-6.2-5.7-6.2H153v-1.8h7.2c5.5,0,9.4,2.3,9.4,7.9V33h1.8C171.6,33,171.7,33.1,171.7,33.4
			z"/>
		<path class="st5" d="M198.3,33.4v1.1c0,0.1-0.1,0.3-0.3,0.3h-3c-1,0-2-0.6-2.3-1.5l-1.4,1.5h-4.4c-3,0-5.8-1.1-7.4-3.3
			c-0.5,2-1.9,3.3-5,3.3h-2.9c-0.3,0-0.3-0.1-0.3-0.3v-1.1c0-0.1,0.1-0.3,0.3-0.3h2.9c2.9,0,3-1.3,2.9-4v-3.1v-0.3
			c0-5.5,4.3-9.2,9.6-9.2c5.3,0,9.4,3.7,9.4,9.2v7.4h1.8C198.1,33,198.3,33.1,198.3,33.4z M192.5,33c-0.1-0.3-0.1-0.6-0.1-0.9v-6.5
			c0-6.4-3.8-7.4-5.7-7.4c-1.9,0-5.7,1.1-5.7,7.4c0,6.4,3.8,7.4,5.7,7.4H192.5z"/>
		<path class="st5" d="M234.3,33l-1.6,1.8h-1.4c-1.1,0-2-0.5-2.5-1.5l-1.4,1.5H198c-0.3,0-0.3-0.1-0.3-0.3v-1.1
			c0-0.1,0.1-0.3,0.3-0.3h30.7c-1.3-2.3-2.3-5-3.7-7.9c-1.1-2.5-2.9-4.7-6.8-4.7h-17.4l1.6-1.8h16.4c5.2,0,8.4,2.4,10.1,5.5
			c1.8,3.4,2.6,6.3,3.5,7.9c0.3,0.6,0.6,0.9,1.1,0.9h0.6V33z"/>
		<path class="st5" d="M240.2,7.9h2.8v1h-3.7c-0.4,0-1.6-0.1-2.1,1l-1.5-0.8c0.5-0.6,1.3-1,2.1-1.1c-0.5-0.5-0.9-1.1-0.9-1.9
			c0-1.8,1.4-2.8,3.1-2.8c1.3,0,2.3,0.6,2.9,1.5l-1.5,0.9c-0.1-0.9-0.6-1.4-1.4-1.4c-0.9,0-1.3,0.6-1.3,1.8S239.4,7.9,240.2,7.9z
			 M238.2,12.6l3.9-2v24.2h-3.9V12.6z"/>
		<path class="st5" d="M276.9,33.4v1.1c0,0.1-0.1,0.3-0.3,0.3h-3c-1,0-2-0.6-2.3-1.5l-1.4,1.5h-4.4c-5.3,0-9.6-3.7-9.6-9.2
			c0-5.5,4.3-9.2,9.6-9.2c5.3,0,9.4,3.7,9.4,9.2V33h1.8C276.7,33,276.9,33.1,276.9,33.4z M271.1,33c-0.1-0.3-0.1-0.6-0.1-0.9v-6.5
			c0-6.4-3.8-7.4-5.7-7.4c-1.9,0-5.7,1.1-5.7,7.4c0,6.4,3.8,7.4,5.7,7.4H271.1z M262.5,14.2l-2.4-2.4l2.4-2.5l2.5,2.5L262.5,14.2z
			 M267.8,14.2l-2.4-2.4l2.4-2.5l2.4,2.5L267.8,14.2z"/>
		<path class="st5" d="M301.4,25.5v9.2h-1.3c-1,0-1.9-0.6-2.3-1.5l-1.4,1.5h-4.4c-3,0-5.8-1.1-7.4-3.3c-0.5,2-1.9,3.3-5,3.3h-2.9
			c-0.3,0-0.3-0.1-0.3-0.3v-1.1c0-0.1,0.1-0.3,0.3-0.3h2.9c2.9,0,3-1.3,2.9-4v-3.1v-0.3c0-5.5,4.3-9.2,9.6-9.2
			C297.1,16.4,301.4,19.9,301.4,25.5z M297.6,33c-0.1-0.3-0.1-0.6-0.1-0.9v-6.5c0-6.4-3.8-7.4-5.7-7.4c-1.9,0-5.7,1.1-5.7,7.4
			c0,6.4,3.8,7.4,5.7,7.4H297.6z"/>
		<path class="st5" d="M313.1,33.4v1.1c0,0.1-0.1,0.3-0.3,0.3h-6.8V12.6l3.9-2v22.5h2.9C313,33,313.1,33.1,313.1,33.4z"/>
		<path class="st5" d="M344.2,17.6v10.6c0,4.9-2.4,6.5-7.9,6.5H332l-1.1-1.1c-1.3,0.8-3.1,1.1-5.7,1.1h-4.3l-1.1-1.1
			c-1.3,0.8-3.1,1.1-5.7,1.1h-1.4c-0.3,0-0.3-0.1-0.3-0.3v-1.1c0-0.1,0.1-0.3,0.3-0.3h0.8c2.5,0,4.7-0.3,4.7-5.2v-8.2l3.9-2v10.6
			c0,2.3-0.5,3.8-1.6,4.9h4c2.5,0,4.7-0.3,4.7-5.2v-8.2l3.9-2v10.6c0,2.3-0.5,3.8-1.6,4.9h4c2.5,0,4.7-0.3,4.7-5.2V20L344.2,17.6z"
			/>
		<path class="st5" d="M351.4,7.9h2.8v1h-3.7c-0.4,0-1.6-0.1-2.1,1l-1.5-0.8c0.5-0.6,1.3-1,2.1-1.1c-0.5-0.5-0.9-1.1-0.9-1.9
			c0-1.8,1.4-2.8,3.1-2.8c1.3,0,2.3,0.6,2.9,1.5l-1.5,0.9c-0.1-0.9-0.6-1.4-1.4-1.4c-0.9,0-1.3,0.6-1.3,1.8S350.7,7.9,351.4,7.9z
			 M349.4,12.6l3.9-2v24.2h-3.9V12.6z"/>
		<path class="st5" d="M402.9,33.4v1.1c0,0.1-0.1,0.3-0.3,0.3h-3c-1.4,0-2.6-1.1-2.6-2.6v-7.9c0-5.9-3.8-6.2-5.7-6.2
			c-1.9,0-5.7,1.1-5.7,7.4c0,6.4,3.8,7.4,5.7,7.4v1.8H376c-5.3,0-9.4-3.7-9.4-9.2c0-1.9,0.5-3.4,1.3-4.8l3,1.6
			c-0.3,0.9-0.4,1.9-0.4,3.1c0,6.4,3.8,7.4,5.7,7.4h9.6c-2.3-1.6-3.8-4.2-3.8-7.4c0-5.5,4.3-9.2,9.6-9.2c5.7,0,9.4,2.3,9.4,7.9V33
			h1.8C402.8,33,402.9,33.1,402.9,33.4z M380,38.1l2.4,2.4l-2.4,2.4l-2.4-2.4L380,38.1z M385.3,38.1l2.5,2.4l-2.5,2.4l-2.4-2.4
			L385.3,38.1z"/>
		<path class="st5" d="M405.8,33.4v1.1c0,0.3-0.1,0.3-0.3,0.3h-2.9c-0.1,0-0.3-0.1-0.3-0.3v-1.1c0-0.1,0.1-0.3,0.3-0.3h2.9
			C405.7,33,405.8,33.1,405.8,33.4z"/>
		<path class="st5" d="M408.7,33.4v1.1c0,0.3-0.1,0.3-0.3,0.3h-2.9c-0.1,0-0.3-0.1-0.3-0.3v-1.1c0-0.1,0.1-0.3,0.3-0.3h2.9
			C408.6,33,408.7,33.1,408.7,33.4z"/>
		<path class="st5" d="M433.3,25.5v9.2H432c-1,0-1.9-0.6-2.3-1.5l-1.4,1.5H424c-3,0-5.8-1.1-7.4-3.3c-0.5,2-1.9,3.3-5,3.3h-2.9
			c-0.3,0-0.3-0.1-0.3-0.3v-1.1c0-0.1,0.1-0.3,0.3-0.3h2.9c2.9,0,3-1.3,2.9-4v-3.1v-0.3c0-5.5,4.3-9.2,9.6-9.2
			C429.3,16.5,433.3,19.9,433.3,25.5z M429.5,33c-0.1-0.3-0.1-0.6-0.1-0.9v-6.5c0-6.4-3.8-7.4-5.7-7.4s-5.7,1.1-5.7,7.4
			c0,6.4,3.8,7.4,5.7,7.4H429.5z"/>
		<path class="st5" d="M445,33.4v1.1c0,0.1-0.1,0.3-0.3,0.3h-6.8V12.6l3.9-2v22.5h2.9C444.9,33,445,33.1,445,33.4z"/>
		<path class="st5" d="M447.9,33.4v1.1c0,0.3-0.1,0.3-0.3,0.3h-2.9c-0.1,0-0.3-0.1-0.3-0.3v-1.1c0-0.1,0.1-0.3,0.3-0.3h2.9
			C447.8,33,447.9,33.1,447.9,33.4z"/>
		<path class="st5" d="M450.8,33.4v1.1c0,0.3-0.1,0.3-0.3,0.3h-2.9c-0.1,0-0.3-0.1-0.3-0.3v-1.1c0-0.1,0.1-0.3,0.3-0.3h2.9
			C450.7,33,450.8,33.1,450.8,33.4z"/>
		<path class="st5" d="M453.7,33.4v1.1c0,0.3-0.1,0.3-0.3,0.3h-2.9c-0.1,0-0.3-0.1-0.3-0.3v-1.1c0-0.1,0.1-0.3,0.3-0.3h2.9
			C453.6,33,453.7,33.1,453.7,33.4z"/>
		<path class="st5" d="M456.6,33.4v1.1c0,0.3-0.1,0.3-0.3,0.3h-2.9c-0.1,0-0.3-0.1-0.3-0.3v-1.1c0-0.1,0.1-0.3,0.3-0.3h2.9
			C456.5,33,456.6,33.1,456.6,33.4z"/>
		<path class="st5" d="M459.5,33.4v1.1c0,0.3-0.1,0.3-0.3,0.3h-2.9c-0.1,0-0.3-0.1-0.3-0.3v-1.1c0-0.1,0.1-0.3,0.3-0.3h2.9
			C459.4,33,459.5,33.1,459.5,33.4z"/>
		<path class="st5" d="M462.4,33.4v1.1c0,0.3-0.1,0.3-0.3,0.3h-2.9c-0.1,0-0.3-0.1-0.3-0.3v-1.1c0-0.1,0.1-0.3,0.3-0.3h2.9
			C462.3,33,462.4,33.1,462.4,33.4z"/>
		<path class="st5" d="M465.3,33.4v1.1c0,0.3-0.1,0.3-0.3,0.3h-2.9c-0.1,0-0.3-0.1-0.3-0.3v-1.1c0-0.1,0.1-0.3,0.3-0.3h2.9
			C465.1,33,465.3,33.1,465.3,33.4z"/>
		<path class="st5" d="M501.2,33.4v1.1c0,0.1-0.1,0.3-0.3,0.3h-2.8c-1.1,0-2-0.5-2.5-1.5l-1.4,1.5H465c-0.3,0-0.3-0.1-0.3-0.3v-1.1
			c0-0.1,0.1-0.3,0.3-0.3h30.5c-1.3-2.3-2.3-5-3.7-7.9c-1.1-2.5-2.9-4.7-6.8-4.7h-17.4l1.6-1.8h16.4c5.2,0,8.4,2.4,10.1,5.5
			c1.8,3.4,2.6,6.3,3.5,7.9c0.3,0.6,0.6,0.9,1.1,0.9h0.5C501.2,33,501.2,33.1,501.2,33.4z"/>
		<path class="st5" d="M527.9,33.4v1.1c0,0.1-0.1,0.3-0.3,0.3h-3c-1,0-2-0.6-2.3-1.5l-1.4,1.5h-4.7c-3,0-5.8-1.1-7.4-3.3
			c-0.5,2-1.9,3.3-5,3.3h-2.9c-0.3,0-0.3-0.1-0.3-0.3v-1.1c0-0.1,0.1-0.3,0.3-0.3h2.9c2.9,0,3-1.3,2.9-4v-3.1v-0.3
			c0-5.5,4.3-9.2,9.6-9.2c5.3,0,9.4,3.7,9.4,9.2v7.4h1.8C527.7,33,527.9,33.1,527.9,33.4z M522.1,33c-0.1-0.3-0.1-0.6-0.1-0.9v-6.5
			c0-6.4-3.8-7.4-5.7-7.4s-5.7,1.1-5.7,7.4c0,6.4,3.8,7.4,5.7,7.4H522.1z"/>
		<path class="st5" d="M537.3,10.4v24.2h-1.4c-1,0-1.9-0.6-2.3-1.5l-1.4,1.5h-4.7c-0.3,0-0.3-0.1-0.3-0.3v-1.1
			c0-0.1,0.1-0.3,0.3-0.3h6c-0.1-0.3-0.1-0.6-0.1-0.9V12.6L537.3,10.4z"/>
		<path class="st5" d="M543.1,12.6l3.9-2v24.2h-3.9V12.6z"/>
		<path class="st5" d="M596.6,33.4v1.1c0,0.1-0.1,0.3-0.3,0.3h-4.3c-1,0-1.9-0.6-2.3-1.5l-1.4,1.5h-18c-5.3,0-9.4-3.7-9.4-9.2v-4.7
			l3.9-2v6.7c0,6.4,3.8,7.4,5.7,7.4h19.3c-0.1-0.3-0.1-0.6-0.1-0.9V19.6l3.9-2V33h2.9C596.5,33,596.6,33.1,596.6,33.4z M577.6,38.1
			l2.5,2.4l-2.5,2.4l-2.4-2.4L577.6,38.1z"/>
		<path class="st5" d="M599.5,33.4v1.1c0,0.3-0.1,0.3-0.3,0.3h-2.9c-0.1,0-0.3-0.1-0.3-0.3v-1.1c0-0.1,0.1-0.3,0.3-0.3h2.9
			C599.4,33,599.5,33.1,599.5,33.4z"/>
		<path class="st5" d="M602.4,33.4v1.1c0,0.3-0.1,0.3-0.3,0.3h-2.9c-0.1,0-0.3-0.1-0.3-0.3v-1.1c0-0.1,0.1-0.3,0.3-0.3h2.9
			C602.3,33,602.4,33.1,602.4,33.4z"/>
		<path class="st5" d="M604.2,17.1l-2.4-2.5l2.4-2.4l2.5,2.4L604.2,17.1z M615.2,33.4v1.1c0,0.1-0.1,0.3-0.3,0.3h-4.3
			c-1,0-1.9-0.6-2.3-1.5l-1.4,1.5h-4.8c-0.3,0-0.3-0.1-0.3-0.3v-1.1c0-0.1,0.1-0.3,0.3-0.3h6c-0.1-0.3-0.1-0.6-0.1-0.9V19.8l3.9-2
			v15.4h2.9C615,33,615.2,33.1,615.2,33.4z M609.7,17.1l-2.5-2.5l2.5-2.4l2.4,2.4L609.7,17.1z"/>
		<path class="st5" d="M651.4,33.4v1.1c0,0.1-0.1,0.3-0.3,0.3h-2.9c-1.1,0-2-0.5-2.6-1.5l-1.4,1.5h-29.3c-0.3,0-0.3-0.1-0.3-0.3
			v-1.1c0-0.1,0.1-0.3,0.3-0.3h30.7c-1.3-2.3-2.3-5-3.7-7.9c-1.1-2.5-2.9-4.7-6.8-4.7h-17.3v-2.3l7.4-7.8h4.7l-7.9,8.3h13.6
			c5.2,0,8.4,2.4,10.1,5.5c1.8,3.4,2.6,6.3,3.5,7.9c0.3,0.6,0.6,0.9,1.1,0.9h0.6C651.3,33,651.4,33.1,651.4,33.4z"/>
		<path class="st5" d="M676,25.5v9.2h-1.3c-1,0-1.9-0.6-2.3-1.5l-1.4,1.5h-4.4c-3,0-5.8-1.1-7.4-3.3c-0.5,2-1.9,3.3-5,3.3h-3.1
			c-0.3,0-0.3-0.1-0.3-0.3v-1.1c0-0.1,0.1-0.3,0.3-0.3h2.9c2.9,0,3-1.3,2.9-4v-3.1v-0.3c0-5.5,4.3-9.2,9.6-9.2
			C671.7,16.4,676,19.9,676,25.5z M672.2,33c-0.1-0.3-0.1-0.6-0.1-0.9v-6.5c0-6.4-3.8-7.4-5.7-7.4s-5.7,1.1-5.7,7.4
			c0,6.4,3.8,7.4,5.7,7.4H672.2z"/>
	</g>
	<g>
		<g>
			<path class="st5" d="M30,72.9c0,0.6-0.3,1.1-0.8,1.5c-0.5,0.4-1.5,0.5-2.9,0.5h-1.6c-4.2,0-6.2-2.3-6.2-6.7V56h0.9
				c1,0,1.6,0.6,1.6,1.9v9.6c0,2,0.3,3.4,0.9,4c0.5,0.6,1.6,1,3.4,1h1c1.5,0,2.8-0.1,3.7-0.4V72.9z"/>
			<path class="st5" d="M47.9,70.1c0,1.5-0.5,2.6-1.4,3.7c-0.9,0.9-2.1,1.4-3.9,1.4c-1.6,0-3-0.4-4.2-1.1c-1-0.8-1.5-1.9-1.5-3.3
				c0-1.4,0.6-2.5,1.8-3.4s2.8-1.3,4.9-1.3h1.9v-0.8c0-1-0.3-1.6-0.8-2.1c-0.5-0.4-1.4-0.6-2.5-0.6c-2,0-3.5,0.6-4.4,1.9h-0.1v-1.1
				c0-0.8,0.5-1.4,1.4-2c0.9-0.6,2.1-0.9,3.8-0.9c1.6,0,2.9,0.5,3.9,1.4c1,0.9,1.4,2.3,1.4,3.9v4.4H47.9z M45.5,69.8v-1.8h-1.9
				c-2.8,0-4.2,0.8-4.2,2.4c0,0.6,0.3,1.1,0.9,1.5c0.6,0.4,1.4,0.6,2.4,0.6s1.8-0.3,2.1-0.6C45.3,71.6,45.5,70.8,45.5,69.8z"/>
			<path class="st5" d="M61.8,75c-0.5,0-0.9-0.3-1.3-0.8c-2.4-4.2-3.9-8.7-4.5-13.6h1.3c0.4,0,0.8,0.1,1,0.4c0.3,0.3,0.4,0.6,0.5,1
				c0.5,3.5,1.5,6.8,3,9.7c1.4-2.5,2.5-6,3.7-10.7h0.8c0.9,0,1.4,0.5,1.6,1.4c0.8,3.7,1.9,6.8,3.1,9.3c0.8-1.4,1.4-3.1,2.1-5.4
				c0.6-2.3,1-4.2,1.1-5.7H75c0.4,0,0.8,0.1,1,0.4c0.3,0.3,0.4,0.5,0.4,0.9c-0.1,2.1-0.6,4.4-1.6,6.8c-0.9,2.4-2,4.5-3.1,6.3
				c-0.5,0-0.9,0-1.1-0.1c-0.3-0.1-0.5-0.3-0.6-0.6c-0.8-1.3-1.5-2.8-2.1-4.5c-0.8-1.8-1.1-3.3-1.3-4.7c-0.3,1.5-0.8,3.3-1.6,5.3
				c-0.8,2-1.5,3.7-2.3,4.7H61.8z"/>
			<path class="st5" d="M105.4,55.7c2.6,0,4.7,0.9,6.2,2.6c1.5,1.8,2.3,4,2.3,6.9s-0.8,5.2-2.3,7.1c-1.5,1.9-3.7,2.8-6.3,2.8
				c-2.4,0-4.3-0.9-5.9-2.5c-1.6-1.8-2.4-4-2.4-6.9s0.8-5.3,2.3-7.1C100.7,56.6,102.7,55.7,105.4,55.7z M111.3,65.3
				c0-4.9-2-7.3-6-7.3c-1.8,0-3.3,0.6-4.3,1.8c-1,1.1-1.5,3-1.5,5.3c0,2.4,0.5,4.3,1.5,5.5c1,1.3,2.5,1.9,4.4,1.9s3.4-0.6,4.4-1.9
				C110.8,69.5,111.3,67.7,111.3,65.3z"/>
			<path class="st5" d="M130.6,58.8L130.6,58.8c-0.6-0.5-1.4-0.8-2.3-0.8c-0.9,0-1.5,0.3-1.9,0.6c-0.4,0.4-0.6,1.1-0.6,2.3v1.8h4.2
				v0.9c0,0.4-0.1,0.6-0.4,0.9c-0.3,0.3-0.6,0.4-1.1,0.4h-2.6v10h-0.9c-1,0-1.5-0.6-1.5-1.8V60.5c0-1.3,0.4-2.4,1.3-3.4
				c0.9-1,2-1.5,3.4-1.5c0.8,0,1.4,0.1,1.9,0.5c0.5,0.4,0.8,0.8,0.8,1.1v1.5H130.6z"/>
			<path class="st5" d="M144.8,58.8L144.8,58.8c-0.6-0.5-1.4-0.8-2.3-0.8c-0.9,0-1.5,0.3-1.9,0.6c-0.4,0.4-0.6,1.1-0.6,2.3v1.8h4.2
				v0.9c0,0.4-0.1,0.6-0.4,0.9c-0.3,0.3-0.6,0.4-1.1,0.4H140v10h-0.9c-1,0-1.5-0.6-1.5-1.8V60.5c0-1.3,0.4-2.4,1.3-3.4
				c0.9-1,2-1.5,3.4-1.5c0.8,0,1.4,0.1,1.9,0.5c0.5,0.4,0.8,0.8,0.8,1.1v1.5H144.8z"/>
			<path class="st5" d="M155,56.1c0.3,0.3,0.4,0.6,0.4,1c0,0.4-0.1,0.8-0.5,1c-0.3,0.3-0.6,0.4-1.1,0.4c-0.4,0-0.8-0.1-1.1-0.4
				c-0.3-0.3-0.5-0.6-0.5-1c0-0.4,0.1-0.8,0.5-1c0.4-0.3,0.8-0.5,1.1-0.5S154.7,55.9,155,56.1z M158.3,73.4c0,0.5-0.1,0.9-0.4,1.1
				c-0.3,0.3-0.6,0.4-1,0.4c-2.8,0-4.3-1.4-4.3-4.2V60.6h0.8c0.5,0,0.9,0.1,1.3,0.5c0.4,0.4,0.5,0.8,0.5,1.4v7.8
				c0,1.5,0.8,2.3,2.1,2.3h1V73.4z"/>
			<path class="st5" d="M176.4,64.4L176.4,64.4c-0.4-0.5-0.9-1-1.6-1.3c-0.8-0.4-1.4-0.5-2.1-0.5c-1.4,0-2.5,0.5-3.4,1.4
				c-0.9,0.9-1.3,2.1-1.3,3.8c0,1.6,0.5,2.8,1.4,3.8c1,0.9,2,1.4,3.3,1.4c1.6,0,2.9-0.4,3.5-1.3h0.1v1c0,0.6-0.4,1.1-1,1.6
				c-0.6,0.5-1.8,0.8-3.3,0.8c-1.5,0-2.9-0.6-4.4-2c-1.4-1.3-2.1-3-2.1-5.2c0-2.1,0.6-3.9,1.9-5.3c1.3-1.5,3-2.1,5-2.1
				c1.1,0,2,0.3,2.8,0.8c0.8,0.5,1.1,1.3,1.1,2.3v0.9H176.4z"/>
			<path class="st5" d="M191.4,60.3c1.5,0,2.8,0.5,3.8,1.4c1.1,1,1.6,2.1,1.6,3.4c0,1.4-0.4,2.3-1.3,2.8c-0.9,0.5-2.4,0.8-4.8,0.8
				h-3.5c0.1,1.3,0.5,2.1,1.4,2.9s1.9,1.1,3.1,1.1c1.9,0,3.3-0.5,4.3-1.5h0.1v1c0,0.8-0.4,1.4-1.3,1.9c-0.9,0.5-2,0.8-3.5,0.8
				c-1.9,0-3.5-0.6-4.8-2c-1.3-1.4-1.9-3-1.9-5.2s0.6-3.9,1.9-5.3C188,61,189.5,60.3,191.4,60.3z M194.4,65.4c0-0.8-0.3-1.5-0.9-2
				c-0.5-0.5-1.4-0.9-2.5-0.9c-1.1,0-2,0.4-2.8,1.1c-0.8,0.8-1.1,1.6-1.1,2.6v0.6h3.1c1.6,0,2.8-0.1,3.3-0.4
				C194.2,66.3,194.4,65.9,194.4,65.4z"/>
			<path class="st5" d="M231.1,67.6c0,2.3-0.6,4-1.8,5.4c-1.1,1.4-2.6,2-4.5,2c-1.9,0-3.5-0.6-4.7-2c-1.3-1.4-1.9-3.1-1.9-5.3
				c0-2.3,0.6-4,1.8-5.3c1.1-1.4,2.8-2,4.7-2c1.9,0,3.5,0.6,4.7,1.9C230.4,63.5,231.1,65.3,231.1,67.6z M228.5,68
				c0-3.5-1.4-5.3-4.3-5.3c-1.1,0-2,0.4-2.8,1.3c-0.6,0.9-1,2-1,3.7c0,1.5,0.4,2.8,1.1,3.8c0.8,0.9,1.8,1.4,3,1.4
				c1.3,0,2.3-0.4,2.9-1.3C228.3,70.5,228.5,69.3,228.5,68z"/>
			<path class="st5" d="M247.8,58.8L247.8,58.8c-0.6-0.5-1.4-0.8-2.3-0.8c-0.9,0-1.5,0.3-1.9,0.6c-0.4,0.4-0.6,1.1-0.6,2.3v1.8h4.2
				v0.9c0,0.4-0.1,0.6-0.4,0.9c-0.3,0.3-0.6,0.4-1.1,0.4H243v10h-0.9c-1,0-1.5-0.6-1.5-1.8V60.5c0-1.3,0.4-2.4,1.3-3.4
				c0.9-1,2-1.5,3.4-1.5c0.8,0,1.4,0.1,1.9,0.5c0.5,0.4,0.8,0.8,0.8,1.1v1.5H247.8z"/>
			<path class="st5" d="M275.9,55.7c2.6,0,4.7,0.9,6.2,2.6c1.5,1.8,2.3,4,2.3,6.9s-0.8,5.2-2.3,7.1c-1.5,1.9-3.7,2.8-6.3,2.8
				c-2.4,0-4.3-0.9-5.9-2.5c-1.6-1.8-2.4-4-2.4-6.9s0.8-5.3,2.3-7.1C271.2,56.6,273.4,55.7,275.9,55.7z M282,65.3c0-4.9-2-7.3-6-7.3
				c-1.8,0-3.3,0.6-4.3,1.8c-1,1.1-1.5,3-1.5,5.3c0,2.4,0.5,4.3,1.5,5.5c1,1.3,2.5,1.9,4.4,1.9s3.4-0.6,4.4-1.9
				C281.4,69.5,282,67.7,282,65.3z"/>
			<path class="st5" d="M303,70.5c0,1.4-0.5,2.5-1.5,3.4c-1,0.8-2.4,1.1-4,1.1c-1.3,0-2.3-0.3-3-0.8c-0.8-0.5-1.3-1.3-1.3-2v-1h0.1
				c1,1.1,2.4,1.6,4.3,1.6c1.9,0,2.9-0.6,2.9-2c0-0.6-0.3-1-0.8-1.4c-0.5-0.4-1.4-0.6-2.9-1c-1.5-0.3-2.5-0.8-3.1-1.3
				c-0.6-0.5-0.9-1.4-0.9-2.4c0-1.1,0.5-2.1,1.5-3c1-0.9,2.4-1.3,4-1.3c1.1,0,2,0.3,2.9,0.8c0.8,0.5,1.3,1.1,1.3,2v1h-0.1
				c-0.4-0.4-0.9-0.8-1.5-1c-0.8-0.3-1.4-0.5-2.3-0.5c-2.3,0-3.4,0.6-3.4,2c0,0.5,0.3,0.9,0.6,1.1c0.4,0.3,1.4,0.5,2.8,0.9
				C301.6,67.2,303,68.5,303,70.5z"/>
			<path class="st5" d="M322.6,70.1c0,1.5-0.5,2.6-1.4,3.7c-0.9,0.9-2.1,1.4-3.9,1.4c-1.6,0-3-0.4-4.2-1.1c-1-0.8-1.5-1.9-1.5-3.3
				c0-1.4,0.6-2.5,1.8-3.4c1.1-0.9,2.8-1.3,4.9-1.3h1.9v-0.8c0-1-0.3-1.6-0.8-2.1c-0.5-0.4-1.4-0.6-2.5-0.6c-2,0-3.5,0.6-4.4,1.9
				h-0.1v-1.1c0-0.8,0.5-1.4,1.4-2c0.9-0.6,2.1-0.9,3.8-0.9s2.9,0.5,3.9,1.4c1,0.9,1.4,2.3,1.4,3.9v4.4H322.6z M320.1,69.8v-1.8
				h-1.9c-2.8,0-4.2,0.8-4.2,2.4c0,0.6,0.3,1.1,0.9,1.5c0.6,0.4,1.4,0.6,2.4,0.6c1,0,1.8-0.3,2.1-0.6
				C319.9,71.6,320.1,70.8,320.1,69.8z"/>
			<path class="st5" d="M351.9,74.8H351c-0.5,0-0.9-0.1-1.1-0.5c-0.3-0.3-0.4-0.8-0.4-1.3v-6.2c0-2.8-1-4.2-3-4.2
				c-1.1,0-2,0.4-2.5,1c-0.5,0.6-0.8,1.6-0.8,3.1v8.1h-0.8c-1,0-1.6-0.6-1.6-1.8v-6.2c0-1.3-0.3-2.3-0.9-3c-0.5-0.8-1.4-1.1-2.4-1.1
				c-2.1,0-3.1,1.4-3.1,4.2V75h-0.8c-1.1,0-1.6-0.6-1.6-1.8v-6.5c0-1.6,0.5-3.1,1.5-4.3c1-1.1,2.5-1.8,4.4-1.8
				c1.9,0,3.3,0.9,4.2,2.5c0.5-0.8,1.1-1.4,1.9-1.8c0.8-0.4,1.6-0.6,2.5-0.6c3.5,0,5.4,2.1,5.4,6.3V74.8z"/>
			<path class="st5" d="M371.9,70.1c0,1.5-0.5,2.6-1.4,3.7c-0.9,0.9-2.1,1.4-3.9,1.4c-1.6,0-3-0.4-4.2-1.1c-1-0.8-1.5-1.9-1.5-3.3
				c0-1.4,0.6-2.5,1.8-3.4c1.1-0.9,2.8-1.3,4.9-1.3h1.9v-0.8c0-1-0.3-1.6-0.8-2.1c-0.5-0.4-1.4-0.6-2.5-0.6c-2,0-3.5,0.6-4.4,1.9
				h-0.1v-1.1c0-0.8,0.5-1.4,1.4-2c0.9-0.6,2.1-0.9,3.8-0.9s2.9,0.5,3.9,1.4c1,0.9,1.4,2.3,1.4,3.9v4.4H371.9z M369.5,69.8v-1.8
				h-1.9c-2.8,0-4.2,0.8-4.2,2.4c0,0.6,0.3,1.1,0.9,1.5c0.6,0.4,1.4,0.6,2.4,0.6s1.8-0.3,2.1-0.6C369.2,71.6,369.5,70.8,369.5,69.8z
				"/>
			<path class="st5" d="M407.1,74.8c-1,0-1.5-0.4-1.8-1.3c-0.1-0.5-0.3-1.1-0.5-2c-0.3-0.9-0.4-1.4-0.4-1.4h-8.7
				c-0.5,1.9-0.9,3.5-1.1,4.8h-1c-0.8,0-1.1-0.4-1.1-1.1c0-1.5,0.8-4.4,2.3-8.7c1.5-4.3,3-7.3,4.3-8.9h0.9c0.5,0,1,0.1,1.4,0.5
				c1.1,1,2.5,4,4.4,9.1c1.1,3.3,2,6.3,2.4,9.2h-1V74.8z M403.9,67.7c-1-3.5-2.3-6.7-3.8-9.4c-1.5,2.6-2.8,5.8-3.8,9.4H403.9z"/>
			<path class="st5" d="M427.3,74.8c-1.1,0-1.8-0.5-1.8-1.5v-6.7c0-2.5-1-3.9-3.1-3.9c-1,0-1.9,0.4-2.6,1c-0.8,0.8-1.1,1.6-1.1,2.9
				v8.1h-0.8c-1.1,0-1.8-0.5-1.8-1.5V55h0.8c1.1,0,1.8,0.6,1.8,1.8v6c0.9-1.6,2.1-2.4,3.8-2.4c3.7,0,5.4,2,5.4,6v8.3L427.3,74.8
				L427.3,74.8z"/>
			<path class="st5" d="M457.3,74.8h-0.9c-0.5,0-0.9-0.1-1.1-0.5c-0.3-0.3-0.4-0.8-0.4-1.3v-6.2c0-2.8-1-4.2-3-4.2
				c-1.1,0-2,0.4-2.5,1c-0.5,0.6-0.8,1.6-0.8,3.1v8.1h-0.8c-1.1,0-1.6-0.6-1.6-1.8v-6.2c0-1.3-0.3-2.3-0.9-3
				c-0.5-0.8-1.4-1.1-2.4-1.1c-2.1,0-3.1,1.4-3.1,4.2V75H439c-1.1,0-1.6-0.6-1.6-1.8v-6.5c0-1.6,0.5-3.1,1.5-4.3
				c1-1.1,2.5-1.8,4.4-1.8c1.9,0,3.3,0.9,4.2,2.5c0.5-0.8,1.1-1.4,1.9-1.8c0.8-0.5,1.6-0.6,2.5-0.6c3.5,0,5.4,2.1,5.4,6.3V74.8z"/>
			<path class="st5" d="M472.9,60.3c1.5,0,2.8,0.5,3.8,1.4c1,0.9,1.6,2.1,1.6,3.4c0,1.4-0.4,2.3-1.3,2.8c-0.9,0.5-2.4,0.8-4.8,0.8
				h-3.5c0.1,1.3,0.5,2.1,1.4,2.9s1.9,1.1,3.1,1.1c1.9,0,3.3-0.5,4.3-1.5h0.1v1c0,0.8-0.4,1.4-1.3,1.9s-2,0.8-3.5,0.8
				c-1.9,0-3.5-0.6-4.8-2c-1.3-1.4-1.9-3-1.9-5.2s0.6-3.9,1.9-5.3C469.5,61,471,60.3,472.9,60.3z M475.9,65.4c0-0.8-0.3-1.5-0.9-2
				c-0.5-0.5-1.4-0.9-2.5-0.9s-2,0.4-2.8,1.1c-0.8,0.8-1.1,1.6-1.1,2.6v0.6h3.1c1.6,0,2.8-0.1,3.3-0.4
				C475.7,66.3,475.9,65.9,475.9,65.4z"/>
			<path class="st5" d="M499.7,67.2c0,2.6-0.5,4.7-1.5,5.9c-1,1.3-2.6,1.9-4.8,1.9c-1.8,0-3.3-0.8-4.5-2.1c-1.3-1.4-1.9-3-1.9-5
				c0-2.4,0.5-4.3,1.6-5.5c1-1.3,2.5-1.9,4.5-1.9c1.9,0,3.4,0.9,4.3,2.6V55h0.6c1.1,0,1.8,0.6,1.8,2v10.2H499.7z M497.2,68
				c0-3.5-1.4-5.3-4.2-5.3c-1.3,0-2.1,0.5-2.8,1.4c-0.6,0.9-1,2.1-1,3.7c0,1.5,0.4,2.8,1.1,3.8c0.8,1,1.8,1.5,3,1.5s2.1-0.4,2.8-1.1
				C497,70.8,497.3,69.6,497.2,68z"/>
			<path class="st5" d="M535.1,74.8c-1,0-1.5-0.4-1.8-1.3c-0.1-0.5-0.3-1.1-0.5-2c-0.3-0.9-0.4-1.4-0.4-1.4h-8.7
				c-0.5,1.9-0.9,3.5-1.1,4.8h-1c-0.8,0-1.1-0.4-1.1-1.1c0-1.5,0.8-4.4,2.3-8.7c1.5-4.3,3-7.3,4.3-8.9h0.9c0.5,0,1,0.1,1.4,0.5
				c1.1,1,2.5,4,4.4,9.1c1.1,3.3,2,6.3,2.4,9.2h-1V74.8z M531.8,67.7c-1-3.5-2.3-6.7-3.8-9.4c-1.5,2.6-2.8,5.8-3.8,9.4H531.8z"/>
			<path class="st5" d="M550.4,73.4c0,0.9-0.6,1.4-1.9,1.4c-2.9,0-4.3-1.4-4.3-4.2V55h0.8c0.5,0,0.9,0.1,1.3,0.5
				c0.3,0.4,0.5,0.8,0.5,1.4v13.5c0,0.9,0.3,1.4,0.6,1.8c0.4,0.4,0.9,0.5,1.6,0.5h1.5v0.8H550.4z"/>
			<path class="st5" d="M564.1,65.7c0,0.4-0.1,0.8-0.4,1.1c-0.3,0.3-0.6,0.5-1,0.5h-5.4v-0.9c0-0.4,0.1-0.8,0.4-1
				c0.3-0.3,0.6-0.5,1.1-0.4h5.2v0.6H564.1z"/>
			<path class="st5" d="M588.1,65.2c0,2.8-0.8,5.2-2.4,6.9c-1.6,1.8-3.7,2.6-6,2.6h-1.6c-1.5,0-2.8-0.4-3.5-1
				c-0.9-0.8-1.3-1.6-1.3-2.9V56.4c1.4-0.4,2.9-0.5,4.2-0.5h2.4c2.4,0,4.3,0.9,5.9,2.5C587.4,60.1,588.1,62.4,588.1,65.2z
				 M585.6,65.3c0-2.3-0.5-4-1.6-5.3c-1.1-1.3-2.6-1.9-4.7-1.9h-1.1c-0.9,0-1.6,0.1-2.4,0.3v11.8c0,1.6,0.9,2.5,2.6,2.5h1
				c1.9,0,3.4-0.6,4.5-1.9C585.1,69.3,585.6,67.6,585.6,65.3z"/>
			<path class="st5" d="M617.1,74.8h-0.9c-0.5,0-0.9-0.1-1.1-0.5c-0.3-0.3-0.4-0.8-0.4-1.3v-6.2c0-2.8-1-4.2-3-4.2
				c-1.1,0-2,0.4-2.5,1c-0.5,0.6-0.8,1.6-0.8,3.1v8.1h-0.8c-1.1,0-1.6-0.6-1.6-1.8v-6.2c0-1.3-0.3-2.3-0.9-3
				c-0.5-0.8-1.4-1.1-2.4-1.1c-2.1,0-3.1,1.4-3.1,4.2V75h-0.8c-1.1,0-1.6-0.6-1.6-1.8v-6.5c0-1.6,0.5-3.1,1.5-4.3
				c1-1.1,2.5-1.8,4.4-1.8s3.3,0.9,4.2,2.5c0.5-0.8,1.1-1.4,1.9-1.8c0.8-0.5,1.6-0.6,2.5-0.6c3.5,0,5.4,2.1,5.4,6.3V74.8z"/>
			<path class="st5" d="M639,67.6c0,2.3-0.6,4-1.8,5.4c-1.1,1.4-2.6,2-4.5,2s-3.5-0.6-4.7-2c-1.3-1.4-1.9-3.1-1.9-5.3
				c0-2.3,0.6-4,1.8-5.3c1.1-1.4,2.8-2,4.7-2s3.5,0.6,4.7,1.9C638.4,63.5,639,65.3,639,67.6z M636.6,68c0-3.5-1.4-5.3-4.3-5.3
				c-1.1,0-2,0.4-2.8,1.3c-0.6,0.9-1,2-1,3.7c0,1.5,0.4,2.8,1.1,3.8c0.8,0.9,1.8,1.4,3,1.4s2.3-0.4,2.9-1.3
				C636.3,70.5,636.6,69.3,636.6,68z"/>
			<path class="st5" d="M659.9,68.7c0,2-0.5,3.7-1.5,4.7c-1,1.1-2.5,1.6-4.3,1.6s-3.3-0.6-4.3-1.8c-1-1.1-1.5-2.8-1.6-4.8v-7.8h0.8
				c1.1,0,1.6,0.6,1.6,1.9v5.8c0,1.4,0.3,2.5,1,3.3c0.6,0.8,1.5,1.1,2.6,1.1c1.1,0,1.9-0.4,2.4-1c0.5-0.6,0.9-1.8,0.9-3.3v-7.8h0.6
				c1.1,0,1.8,0.6,1.8,1.9L659.9,68.7L659.9,68.7z"/>
			<path class="st5" d="M676.8,63.5L676.8,63.5c-0.6-0.5-1.4-0.8-2.4-0.8s-1.6,0.3-2,0.9c-0.4,0.5-0.6,1.6-0.6,3.1v7.9h-0.9
				c-0.5,0-0.8-0.1-1-0.5c-0.3-0.3-0.4-0.6-0.4-1.1v-6.5c0-1.9,0.4-3.4,1.3-4.4c0.9-1,2-1.5,3.4-1.5c0.9,0,1.6,0.1,2,0.5
				c0.4,0.4,0.6,0.8,0.6,1.3V63.5z"/>
		</g>
	</g>
	<g>
		<path class="st1" d="M30.9,97.8v12.5c0,1.2-0.4,2.2-1.3,3c-0.9,0.8-1.8,1.3-3,1.3h-4.5c-1.2,0-2.2-0.4-3-1.3
			c-0.8-0.8-1.3-1.8-1.3-3V102h3.7v8.3c0,0.4,0.1,0.5,0.5,0.5h4.5c0.4,0,0.5-0.1,0.5-0.5V97.8H30.9z M24.4,91.6
			c1.3,0,1.9,0.6,1.9,1.9c0,1.3-0.6,1.9-1.9,1.9s-1.9-0.6-1.9-1.9C22.5,92.2,23.1,91.6,24.4,91.6z"/>
		<path class="st1" d="M37.2,97.8h2.7c1.2,0,2.2,0.4,3,1.3c0.8,0.8,1.3,1.8,1.3,3v4H48v3.6h-3.9v0.8c0,1.2-0.4,2.2-1.3,3
			c-0.8,0.8-1.8,1.3-3,1.3H35v-3.7h4.9c0.4,0,0.5-0.1,0.5-0.5v-0.8h-3.2c-1.2,0-2.2-0.4-3-1.3c-0.8-0.8-1.3-1.8-1.3-3.1v-3.4
			c0-1.2,0.4-2.2,1.3-3C35,98.1,35.9,97.8,37.2,97.8z M39.8,101.4h-2.7c-0.4,0-0.6,0.3-0.6,0.6v3.5c0,0.4,0.3,0.6,0.6,0.6h3.2v-4
			C40.3,101.6,40.2,101.4,39.8,101.4z"/>
		<path class="st1" d="M55,97.8h3.4c1.2,0,2.2,0.4,3,1.3c0.8,0.8,1.3,1.8,1.3,3v4h3.9v3.6H47V106h3.9v-4c0-1.2,0.4-2.2,1.3-3
			C52.8,98.1,53.8,97.8,55,97.8z M58.3,101.4H55c-0.4,0-0.6,0.3-0.6,0.6v3.5c0,0.4,0.3,0.6,0.6,0.6h3.4c0.4,0,0.6-0.3,0.6-0.6V102
			C58.9,101.6,58.7,101.4,58.3,101.4z"/>
		<path class="st1" d="M80.4,95.4l-5.2,1.4l4.8,1.4c2.3,0.6,3.5,2.1,3.5,4.1v3c0,0.3,0,0.4-0.1,0.6h3.9v3.6H65.4V106h13.7
			c0.4,0,0.6-0.3,0.6-0.6v-3c0-0.3-0.1-0.4-0.4-0.5l-10.1-3v-4.3l10.8-3c0.1,0,0.3,0,0.3-0.1L80.4,95.4L80.4,95.4z"/>
		<path class="st1" d="M93.4,109.6h-7.2V106h7.2V109.6z"/>
		<path class="st1" d="M99.6,109.6h-7.2V106h7.2V109.6z"/>
		<path class="st1" d="M105.8,109.6h-7.2V106h7.2V109.6z"/>
		<path class="st1" d="M112.2,109.6h-7.2V106h7.2V109.6z"/>
		<path class="st1" d="M118.3,109.6h-7.2V106h7.2V109.6z"/>
		<path class="st1" d="M124.5,109.6h-7.2V106h7.2V109.6z"/>
		<path class="st1" d="M130.9,109.6h-7.2V106h7.2V109.6z"/>
		<path class="st1" d="M137.1,109.6h-7.2V106h7.2V109.6z"/>
		<path class="st1" d="M143.2,109.6H136V106h7.2V109.6z"/>
		<path class="st1" d="M149.6,109.6h-7.2V106h7.2V109.6z"/>
		<path class="st1" d="M155.8,109.6h-7.2V106h7.2V109.6z"/>
		<path class="st1" d="M162,109.6h-7.2V106h7.2V109.6z"/>
		<path class="st1" d="M168.3,109.6h-7.2V106h7.2V109.6z"/>
		<path class="st1" d="M174.5,109.6h-7.2V106h7.2V109.6z"/>
		<path class="st1" d="M180.7,109.6h-7.2V106h7.2V109.6z"/>
		<path class="st1" d="M187,109.6h-7.2V106h7.2V109.6z"/>
		<path class="st1" d="M193.2,109.6H186V106h7.2V109.6z"/>
		<path class="st1" d="M196.2,97.9l8.3,2.7c2.3,0.8,3.4,2.1,3.4,4.1v0.8c0,0.3,0,0.4-0.1,0.6h4v3.6h-19.5v-3.6h11.4
			c0.4,0,0.6-0.3,0.6-0.6v-0.8c0-0.3-0.1-0.4-0.4-0.5l-7.5-2.5v-3.9H196.2z"/>
		<path class="st1" d="M218.7,97.8h3.4c1.2,0,2.2,0.4,3,1.3c0.8,0.8,1.3,1.8,1.3,3v3.4c0,1.2-0.4,2.1-1.3,3c-0.9,0.9-1.8,1.4-3,1.4
			h-11.4v-3.6h3.7c0-0.3,0-0.5,0-0.8V102c0-1.2,0.4-2.2,1.3-3C216.5,98.1,217.6,97.8,218.7,97.8z M222.1,101.4h-3.4
			c-0.4,0-0.6,0.3-0.6,0.6v3.4c0,0.4,0.3,0.6,0.6,0.6h3.4c0.4,0,0.5-0.3,0.5-0.6V102C222.6,101.6,222.3,101.4,222.1,101.4z"/>
		<path class="st1" d="M232.5,97.8h2.7c1.2,0,2.2,0.4,3,1.3c0.8,0.8,1.3,1.8,1.3,3v8.4c0,1.2-0.4,2.2-1.3,3c-0.8,0.8-1.8,1.3-3,1.3
			h-4.9v-3.7h4.9c0.4,0,0.5-0.1,0.5-0.5v-0.8h-3.2c-1.2,0-2.2-0.4-3-1.3c-0.8-0.8-1.3-1.8-1.3-3.1v-3.4c0-1.2,0.4-2.2,1.3-3
			C230.3,98.1,231.4,97.8,232.5,97.8z M235.2,101.4h-2.7c-0.4,0-0.6,0.3-0.6,0.6v3.5c0,0.4,0.3,0.6,0.6,0.6h3.2v-4
			C235.8,101.6,235.5,101.4,235.2,101.4z"/>
		<path class="st1" d="M260,97.8v12.5c0,1.2-0.4,2.2-1.3,3c-0.9,0.8-1.8,1.3-3,1.3h-4.5c-1.2,0-2.2-0.4-3-1.3
			c-0.8-0.8-1.3-1.8-1.3-3V102h3.7v8.3c0,0.4,0.1,0.5,0.5,0.5h4.5c0.4,0,0.5-0.1,0.5-0.5V97.8H260z M253.6,91.6
			c1.3,0,1.9,0.6,1.9,1.9c0,1.3-0.6,1.9-1.9,1.9s-1.9-0.6-1.9-1.9C251.6,92.2,252.3,91.6,253.6,91.6z"/>
		<path class="st1" d="M266.2,97.8h2.7c1.2,0,2.2,0.4,3,1.3c0.8,0.8,1.3,1.8,1.3,3v8.4c0,1.2-0.4,2.2-1.3,3c-0.8,0.8-1.8,1.3-3,1.3
			H264v-3.7h4.9c0.4,0,0.5-0.1,0.5-0.5v-0.8h-3.2c-1.2,0-2.2-0.4-3-1.3c-0.8-0.8-1.3-1.8-1.3-3.1v-3.4c0-1.2,0.4-2.2,1.3-3
			C264,98.1,265.1,97.8,266.2,97.8z M268.9,101.4h-2.7c-0.4,0-0.6,0.3-0.6,0.6v3.5c0,0.4,0.3,0.6,0.6,0.6h3.2v-4
			C269.4,101.6,269.3,101.4,268.9,101.4z"/>
		<path class="st1" d="M281.7,97.8v12.5c0,1.2-0.4,2.2-1.3,3c-0.8,0.8-1.8,1.3-3,1.3h-2.3v-3.7h2.3c0.4,0,0.5-0.1,0.5-0.5V97.8
			H281.7z"/>
		<path class="st1" d="M287.2,91.6v13.8c0,0.4,0.3,0.6,0.6,0.6h4.6v3.6h-4.6c-1.2,0-2.2-0.4-3-1.3c-0.8-0.8-1.3-1.8-1.3-3V91.6
			H287.2z"/>
		<path class="st1" d="M310.2,106h3.9v3.6h-7.5c-0.3,0.1-0.4,0.1-0.6,0.1h-0.8c-1,0-1.8-0.4-2.3-1.3c-0.6,0.9-1.4,1.3-2.5,1.3h-0.8
			c-0.3,0-0.4,0-0.6-0.1h-7.5V106h3.9v-7.4h3.7v6.7c0,0.4,0.1,0.6,0.5,0.6h0.8c0.4,0,0.6-0.3,0.6-0.6v-6.7h3.6v6.7
			c0,0.4,0.3,0.6,0.6,0.6h0.8c0.4,0,0.5-0.3,0.5-0.6v-7.6h3.7v8.3H310.2z M300.5,91.7c1.3,0,1.9,0.6,1.9,1.9c0,1.3-0.6,1.9-1.9,1.9
			c-1.3,0-1.9-0.6-1.9-1.9C298.6,92.2,299.2,91.7,300.5,91.7z M302.9,87.2c1.3,0,1.9,0.6,1.9,1.9c0,1.3-0.6,1.9-1.9,1.9
			s-1.9-0.6-1.9-1.9C300.9,87.8,301.6,87.2,302.9,87.2z M305.2,91.7c1.3,0,1.9,0.6,1.9,1.9c0,1.3-0.6,1.9-1.9,1.9s-1.9-0.6-1.9-1.9
			C303.2,92.2,303.9,91.7,305.2,91.7z"/>
		<path class="st1" d="M320.3,109.6h-7.2V106h7.2V109.6z"/>
		<path class="st1" d="M326.5,109.6h-7.2V106h7.2V109.6z"/>
		<path class="st1" d="M332.8,109.6h-7.2V106h7.2V109.6z"/>
		<path class="st1" d="M339,109.6h-7.2V106h7.2V109.6z"/>
		<path class="st1" d="M345.2,109.6H338V106h7.2V109.6z"/>
		<path class="st1" d="M351.5,109.6h-7.2V106h7.2V109.6z"/>
		<path class="st1" d="M357.7,109.6h-7.2V106h7.2V109.6z"/>
		<path class="st1" d="M364,109.6h-7.2V106h7.2V109.6z"/>
		<path class="st1" d="M370.2,109.6H363V106h7.2V109.6z"/>
		<path class="st1" d="M376.4,109.6h-7.2V106h7.2V109.6z"/>
		<path class="st1" d="M382.7,109.6h-7.2V106h7.2V109.6z"/>
		<path class="st1" d="M388.9,109.6h-7.2V106h7.2V109.6z"/>
		<path class="st1" d="M395.1,109.6h-7.2V106h7.2V109.6z"/>
		<path class="st1" d="M401.4,109.6h-7.2V106h7.2V109.6z"/>
		<path class="st1" d="M407.6,109.6h-7.2V106h7.2V109.6z"/>
		<path class="st1" d="M413.8,109.6h-7.2V106h7.2V109.6z"/>
		<path class="st1" d="M422.7,97.8v7.9c0.1,0.3,0.3,0.4,0.5,0.4h3.4v3.6h-3.4c-0.9,0-1.7-0.3-2.5-0.8c-0.8,0.5-1.5,0.8-2.5,0.8h-5.5
			V106h5.5c0.3,0,0.5-0.1,0.6-0.4v-0.1v-7.7H422.7z M418.5,91.6c1.3,0,1.9,0.6,1.9,1.9c0,1.3-0.6,1.9-1.9,1.9
			c-1.3,0-1.9-0.6-1.9-1.9C416.5,92.2,417.2,91.6,418.5,91.6z M423.1,91.6c1.3,0,1.9,0.6,1.9,1.9c0,1.3-0.6,1.9-1.9,1.9
			s-1.9-0.6-1.9-1.9C421.2,92.2,421.8,91.6,423.1,91.6z"/>
		<path class="st1" d="M444.3,106h3.9v3.6h-7.5c-0.3,0.1-0.4,0.1-0.6,0.1h-0.8c-1,0-1.8-0.4-2.3-1.3c-0.6,0.9-1.4,1.3-2.5,1.3h-0.8
			c-0.3,0-0.4,0-0.6-0.1h-7.5V106h3.9v-7.4h3.7v6.7c0,0.4,0.1,0.6,0.5,0.6h0.8c0.4,0,0.6-0.3,0.6-0.6v-6.7h3.6v6.7
			c0,0.4,0.3,0.6,0.6,0.6h0.8c0.4,0,0.5-0.3,0.5-0.6v-7.6h3.7v8.3H444.3z"/>
		<path class="st1" d="M455.1,97.8h3.4c1.2,0,2.2,0.4,3,1.3c0.8,0.8,1.3,1.8,1.3,3v3.4c0,1.2-0.4,2.1-1.3,3c-0.9,0.9-1.8,1.4-3,1.4
			h-11.4v-3.6h3.7c0-0.3,0-0.5,0-0.8V102c0-1.2,0.4-2.2,1.3-3C452.9,98.1,454,97.8,455.1,97.8z M458.5,101.4h-3.4
			c-0.4,0-0.6,0.3-0.6,0.6v3.4c0,0.4,0.3,0.6,0.6,0.6h3.4c0.4,0,0.5-0.3,0.5-0.6V102C459,101.6,458.9,101.4,458.5,101.4z"/>
		<path class="st1" d="M466.3,105.8h0.9c0.5,0,0.9,0.1,1,0.3c0.1,0.1,0.3,0.5,0.3,1v1.7c0,1.8-0.4,3.4-1.3,4.8l-1.5-0.5
			c0.3-1.2,0.4-2.2,0.4-3.4c-0.4,0-0.6-0.1-0.8-0.3c-0.3-0.3-0.3-0.5-0.3-0.9V107c0-0.5,0.1-0.8,0.4-1
			C465.6,105.8,466,105.8,466.3,105.8z"/>
		<path class="st1" d="M489.7,97.8v12.5c0,1.2-0.4,2.2-1.3,3c-0.9,0.8-1.8,1.3-3,1.3h-4.5c-1.2,0-2.2-0.4-3-1.3
			c-0.8-0.8-1.3-1.8-1.3-3V102h3.7v8.3c0,0.4,0.1,0.5,0.5,0.5h4.5c0.4,0,0.5-0.1,0.5-0.5V97.8H489.7z M483.1,91.6
			c1.3,0,1.9,0.6,1.9,1.9c0,1.3-0.6,1.9-1.9,1.9s-1.9-0.6-1.9-1.9C481.2,92.2,481.8,91.6,483.1,91.6z"/>
		<path class="st1" d="M495.9,97.8h2.7c1.2,0,2.2,0.4,3,1.3c0.9,0.8,1.3,1.8,1.3,3v4h3.9v3.6h-3.9v0.8c0,1.2-0.4,2.2-1.3,3
			c-0.8,0.8-1.8,1.3-3,1.3h-4.9v-3.7h4.9c0.4,0,0.5-0.1,0.5-0.5v-0.8h-3.2c-1.2,0-2.2-0.4-3-1.3c-0.8-0.8-1.3-1.8-1.3-3.1v-3.4
			c0-1.2,0.4-2.2,1.3-3C493.7,98.1,494.7,97.8,495.9,97.8z M498.6,101.4h-2.7c-0.4,0-0.6,0.3-0.6,0.6v3.5c0,0.4,0.3,0.6,0.6,0.6h3.2
			v-4C499.1,101.6,498.9,101.4,498.6,101.4z"/>
		<path class="st1" d="M513.7,97.8h3.4c1.2,0,2.2,0.4,3,1.3c0.8,0.8,1.3,1.8,1.3,3v3.4c0,1.2-0.4,2.1-1.3,3c-0.9,0.9-1.8,1.4-3,1.4
			h-11.4v-3.6h3.7c0-0.3,0-0.5,0-0.8V102c0-1.2,0.4-2.2,1.3-3C511.5,98.1,512.5,97.8,513.7,97.8z M517.1,101.4h-3.4
			c-0.4,0-0.6,0.3-0.6,0.6v3.4c0,0.4,0.3,0.6,0.6,0.6h3.4c0.4,0,0.5-0.3,0.5-0.6V102C517.6,101.6,517.4,101.4,517.1,101.4z"/>
		<path class="st1" d="M526.9,91.6v13.8c0,0.4,0.3,0.6,0.6,0.6h4.6v3.6h-4.6c-1.2,0-2.2-0.4-3-1.3c-0.8-0.8-1.3-1.8-1.3-3V91.6
			H526.9z"/>
		<path class="st1" d="M538.3,109.6h-7.2V106h7.2V109.6z"/>
		<path class="st1" d="M544.7,109.6h-7.2V106h7.2V109.6z"/>
		<path class="st1" d="M550.9,109.6h-7.2V106h7.2V109.6z"/>
		<path class="st1" d="M557.1,109.6h-7.2V106h7.2V109.6z"/>
		<path class="st1" d="M563.4,109.6h-7.2V106h7.2V109.6z"/>
		<path class="st1" d="M569.6,109.6h-7.2V106h7.2V109.6z"/>
		<path class="st1" d="M575.8,109.6h-7.2V106h7.2V109.6z"/>
		<path class="st1" d="M582.1,109.6h-7.2V106h7.2V109.6z"/>
		<path class="st1" d="M588.3,109.6h-7.2V106h7.2V109.6z"/>
		<path class="st1" d="M594.5,109.6h-7.2V106h7.2V109.6z"/>
		<path class="st1" d="M600.8,109.6h-7.2V106h7.2V109.6z"/>
		<path class="st1" d="M607,109.6h-7.2V106h7.2V109.6z"/>
		<path class="st1" d="M613.2,109.6H606V106h7.2V109.6z"/>
		<path class="st1" d="M619.5,109.6h-7.2V106h7.2V109.6z"/>
		<path class="st1" d="M625.7,109.6h-7.2V106h7.2V109.6z"/>
		<path class="st1" d="M631.9,109.6h-7.2V106h7.2V109.6z"/>
		<path class="st1" d="M638.2,109.6H631V106h7.2V109.6z"/>
		<path class="st1" d="M644.4,109.6h-7.2V106h7.2V109.6z"/>
		<path class="st1" d="M647.4,97.9l8.3,2.7c2.3,0.8,3.4,2.1,3.4,4.1v0.8c0,0.3,0,0.4-0.1,0.6h4v3.6h-19.5v-3.6h11.4
			c0.4,0,0.6-0.3,0.6-0.6v-0.8c0-0.3-0.1-0.4-0.4-0.5l-7.5-2.5v-3.9H647.4z"/>
		<path class="st1" d="M670,97.8h3.4c1.2,0,2.2,0.4,3,1.3c0.8,0.8,1.3,1.8,1.3,3v3.4c0,1.2-0.4,2.1-1.3,3c-0.9,0.9-1.8,1.4-3,1.4
			H662v-3.6h3.7c0-0.3,0-0.5,0-0.8V102c0-1.2,0.4-2.2,1.3-3C667.8,98.1,668.8,97.8,670,97.8z M673.3,101.4H670
			c-0.4,0-0.6,0.3-0.6,0.6v3.4c0,0.4,0.3,0.6,0.6,0.6h3.4c0.4,0,0.5-0.3,0.5-0.6V102C673.8,101.6,673.7,101.4,673.3,101.4z"/>
	</g>
</g>
</svg>
